# xmcd
#
# Track frame offsets:
#	150
#	9348
#	22190
#	38737
#	48103
#	59001
#	71007
#	81849
#	93346
#	103067
#
# Disc length: 1489 seconds
#
# Revision: 0
# Processed by: cddbd v1.5.2PL0 Copyright (c) Steve Scherf et al.
# Submitted via: EZCDAudioConverter 4.0.5.1
#
DISCID=7d05cf0a
DTITLE=Jimmy Dean and Dottie West - Country Boy and Country Girl
DYEAR=1970
DGENRE=Country
TTITLE0=Slowly
TTITLE1=Jackson
TTITLE2=For The Good Times
TTITLE3=Let It Be Me (Je T'Appartiens)
TTITLE4=Your Love
TTITLE5=Sweet Thang
TTITLE6=Put It Off Until Tomorrow
TTITLE7=I Got You
TTITLE8=Just Someone I Used To Know
TTITLE9=I Wish I Didn't Have To Miss You
EXTD=
EXTT0=
EXTT1=
EXTT2=
EXTT3=
EXTT4=
EXTT5=
EXTT6=
EXTT7=
EXTT8=
EXTT9=
PLAYORDER=
